/* XPM */
static char * debian_installer_launcher_xpm[] = {
"32 32 93 2",
"  	c None",
". 	c #3C95D6",
"+ 	c #3D96D7",
"@ 	c #3C96D6",
"# 	c #3A8DCC",
"$ 	c #4092CF",
"% 	c #4294D1",
"& 	c #4395D1",
"* 	c #4193D0",
"= 	c #3C8FCD",
"- 	c #3C96D5",
"; 	c #3D96D6",
"> 	c #3C97D6",
", 	c #3C97D5",
"' 	c #4FA0DA",
") 	c #56A4DB",
"! 	c #4A9DD9",
"~ 	c #3B96D6",
"{ 	c #CAE3F4",
"] 	c #FFFFFF",
"^ 	c #A1CCEB",
"/ 	c #CDE4F4",
"( 	c #A3CEEC",
"_ 	c #CEE5F5",
": 	c #A5CEEC",
"< 	c #3C96D7",
"[ 	c #D0E5F5",
"} 	c #A6CFEC",
"| 	c #D2E7F6",
"1 	c #A9D0ED",
"2 	c #D3E8F6",
"3 	c #AAD1ED",
"4 	c #72B3E1",
"5 	c #8AC0E6",
"6 	c #92C4E8",
"7 	c #E8F3FA",
"8 	c #D3E7F6",
"9 	c #97C7E9",
"0 	c #8CC1E7",
"a 	c #68ADDF",
"b 	c #66ADDF",
"c 	c #F7FAFD",
"d 	c #EAF4FB",
"e 	c #51A2DA",
"f 	c #3E8FC8",
"g 	c #76B5E2",
"h 	c #FCFDFE",
"i 	c #F4F9FD",
"j 	c #5FA9DD",
"k 	c #4190C8",
"l 	c #4495CD",
"m 	c #87BEE6",
"n 	c #FEFFFF",
"o 	c #FAFDFE",
"p 	c #6FB2E1",
"q 	c #4997CF",
"r 	c #4C9CD4",
"s 	c #99C8EA",
"t 	c #FDFEFF",
"u 	c #7FBAE4",
"v 	c #509ED5",
"w 	c #545454",
"x 	c #50A0D8",
"y 	c #91C4E8",
"z 	c #54A1D7",
"A 	c #595959",
"B 	c #519FD6",
"C 	c #B7D8F0",
"D 	c #509DD3",
"E 	c #5B5B5B",
"F 	c #529ED5",
"G 	c #3F98D7",
"H 	c #4E9ACF",
"I 	c #529FD5",
"J 	c #4F99CF",
"K 	c #539ED4",
"L 	c #4F9ACE",
"M 	c #559FD5",
"N 	c #5099CD",
"O 	c #5A5A5A",
"P 	c #4D4D4D",
"Q 	c #60A3D4",
"R 	c #599BCA",
"S 	c #585858",
"T 	c #9CB7C9",
"U 	c #89A2B2",
"V 	c #4F4F4F",
"W 	c #646464",
"X 	c #7694A9",
"Y 	c #4696CE",
"Z 	c #4492C9",
"` 	c #658296",
" .	c #636363",
"                                                                ",
"                                                                ",
"        . + @ @ # $ % & * = - - - - - - - - - - @ @ + ;         ",
"      @ @ @ @ @ @ @ @ @ @ @ @ @ @ @ @ @ @ @ @ @ @ @ @ @ @       ",
"    @ @ @ @ @ @ @ @ @ @ @ @ @ @ @ @ @ @ @ @ @ @ @ @ @ @ @ @     ",
"    @ @ @ @ @ @ @ @ @ @ @ @ @ @ @ @ @ @ @ @ @ @ @ @ @ @ @ >     ",
"    @ @ @ @ @ @ @ @ @ @ @ @ @ @ @ @ @ @ @ @ @ @ @ @ @ @ @ @     ",
"    , @ @ @ @ @ @ @ @ @ @ @ @ @ @ @ @ @ @ @ @ @ @ @ @ @ @ -     ",
"    @ @ @ @ @ @ @ @ @ @ @ @ @ @ @ @ @ @ @ @ @ @ @ @ @ @ @ @     ",
"    @ @ @ @ @ @ @ @ @ @ @ ' ) ) ) ) ! @ @ @ @ @ @ @ @ @ @ ~     ",
"    @ @ @ @ @ @ @ @ @ @ @ { ] ] ] ] ^ @ @ @ @ @ @ @ @ @ @ @     ",
"    @ @ @ @ @ @ @ @ @ @ @ / ] ] ] ] ( @ @ @ @ @ @ @ @ @ @ @     ",
"    . @ @ @ @ @ @ @ @ @ @ _ ] ] ] ] : @ @ @ @ @ @ @ @ @ @ @     ",
"    < @ @ @ @ @ @ @ @ @ @ [ ] ] ] ] } @ @ @ @ @ @ @ @ @ @ ,     ",
"    @ @ @ @ @ @ @ @ @ @ @ | ] ] ] ] 1 @ @ @ @ @ @ @ @ @ @ @     ",
"    @ @ @ @ @ @ @ @ @ @ @ 2 ] ] ] ] 3 @ @ @ @ @ @ @ @ @ @ @     ",
"    < @ @ @ @ @ @ @ 4 5 6 7 ] ] ] ] 8 9 0 a @ @ @ @ @ @ @ @     ",
"    . @ @ @ @ @ @ @ b c ] ] ] ] ] ] ] ] d e @ @ @ @ @ @ @ ,     ",
"    f @ @ @ @ @ @ @ @ g h ] ] ] ] ] ] i j @ @ @ @ @ @ @ @ k     ",
"    l @ @ @ @ @ @ @ @ @ m n ] ] ] ] o p @ @ @ @ @ @ @ @ @ q     ",
"    r @ @ @ @ @ @ @ @ @ @ s ] ] ] t u @ @ @ @ @ @ @ @ @ @ v w   ",
"    x @ @ @ @ @ @ @ @ @ @ @ 1 ] ] y @ @ @ @ @ @ @ @ @ @ @ z A   ",
"    B @ @ @ @ @ @ @ @ @ @ @ ; C s @ @ @ @ @ @ @ @ @ @ @ @ D E   ",
"    F @ @ @ @ @ @ @ @ @ @ @ @ G @ @ @ @ @ @ @ @ @ @ @ @ @ H E   ",
"    I @ @ @ @ @ @ @ @ @ @ @ @ @ @ @ @ @ @ @ @ @ @ @ @ @ @ J E   ",
"    K @ @ @ @ @ @ @ @ @ @ @ @ @ @ @ @ @ @ @ @ @ @ @ @ @ @ L E   ",
"    M @ @ @ @ @ @ @ @ @ @ @ @ @ @ @ @ @ @ @ @ @ @ @ @ @ @ N O   ",
"  P Q @ @ @ @ @ @ @ @ @ @ @ @ @ @ @ @ @ @ @ @ @ @ @ @ @ @ R S   ",
"    T - @ @ @ @ @ @ @ @ @ @ @ @ @ @ @ @ @ @ @ @ @ @ @ @ - U V   ",
"    W X Y @ @ @ @ @ @ @ @ @ @ @ @ @ @ @ @ @ @ @ @ @ @ Z `  .    ",
"                                                                ",
"                                                                "};
